<?xml version="1.0" encoding="iso-8859-1"?>
<!-- Uploaded to: SVG Repo, www.svgrepo.com, Generator: SVG Repo Mixer Tools -->
<svg height="800px" width="800px" version="1.1" id="Layer_1" xmlns="http://www.w3.org/2000/svg" xmlns:xlink="http://www.w3.org/1999/xlink" 
	 viewBox="0 0 512 512" xml:space="preserve">
<circle style="fill:#EFF2FA;" cx="256" cy="256" r="248"/>
<path style="fill:#FFE669;" d="M256,256L68.273,147.604c19.03-32.921,46.41-60.301,79.331-79.33L256,256z"/>
<path style="fill:#FFCD64;" d="M256,39.207V256L147.604,68.273C179.48,49.726,216.496,39.207,256,39.207z"/>
<path style="fill:#FFAA64;" d="M364.396,68.273L256,256V39.207C295.504,39.207,332.52,49.726,364.396,68.273z"/>
<path style="fill:#FF8C64;" d="M443.727,147.604L256,256L364.396,68.273C397.317,87.303,424.697,114.683,443.727,147.604z"/>
<path style="fill:#FF6469;" d="M472.793,256H256l187.727-108.396C462.275,179.479,472.793,216.495,472.793,256z"/>
<path style="fill:#E18CAF;" d="M472.793,256c0,39.504-10.518,76.52-29.066,108.396L256,256H472.793z"/>
<path style="fill:#C3B4FA;" d="M443.727,364.396c-19.03,32.92-46.41,60.301-79.331,79.33L256,256L443.727,364.396z"/>
<path style="fill:#7DD2F0;" d="M364.396,443.727C332.52,462.274,295.504,472.793,256,472.793V256L364.396,443.727z"/>
<path style="fill:#7DE6C3;" d="M256,256v216.793c-39.504,0-76.52-10.519-108.396-29.066L256,256z"/>
<path style="fill:#96E393;" d="M256,256L147.604,443.727c-32.92-19.029-60.3-46.41-79.331-79.33L256,256z"/>
<path style="fill:#AFE164;" d="M256,256L68.273,364.396C49.725,332.52,39.207,295.504,39.207,256H256z"/>
<path style="fill:#D7E664;" d="M256,256H39.207c0-39.505,10.518-76.521,29.066-108.396L256,256z"/>
<g style="opacity:0.5;">
	<circle style="fill:#FFFFFF;" cx="433.6" cy="303.59" r="12.828"/>
	<circle style="fill:#FFFFFF;" cx="78.4" cy="208.41" r="12.828"/>
	<circle style="fill:#FFFFFF;" cx="303.59" cy="78.4" r="12.827"/>
	<circle style="fill:#FFFFFF;" cx="208.41" cy="433.6" r="12.828"/>
	<circle style="fill:#FFFFFF;" cx="386.01" cy="386.01" r="12.828"/>
	<circle style="fill:#FFFFFF;" cx="125.99" cy="125.99" r="12.827"/>
	<circle style="fill:#FFFFFF;" cx="386.01" cy="125.99" r="12.828"/>
	<circle style="fill:#FFFFFF;" cx="125.99" cy="386.01" r="12.828"/>
	<circle style="fill:#FFFFFF;" cx="78.4" cy="303.59" r="12.828"/>
	<circle style="fill:#FFFFFF;" cx="433.6" cy="208.41" r="12.828"/>
	<circle style="fill:#FFFFFF;" cx="208.41" cy="78.4" r="12.827"/>
	<circle style="fill:#FFFFFF;" cx="303.59" cy="433.6" r="12.828"/>
</g>
<polygon style="fill:#FFFFFF;" points="312,152.002 312,128 384,128 384,200 360,200 360,174.628 176.569,358.059 187.882,369.373 
	165.255,392 120,346.745 142.627,324.118 153.941,335.432 337.372,152.001 "/>
<path style="fill:#2D2B29;" d="M437.02,74.98C388.667,26.628,324.38,0,256,0S123.333,26.628,74.981,74.98S0,187.62,0,256
	s26.629,132.667,74.981,181.02S187.62,512,256,512s132.667-26.628,181.02-74.98S512,324.38,512,256S485.372,123.333,437.02,74.98z
	 M467.69,368.981l-13.735-7.93c15.793-29.669,24.69-62.686,25.889-97.052h16.008C494.606,301.847,484.559,337.501,467.69,368.981z
	 M154.567,447.73c0.138-0.196,0.28-0.387,0.402-0.598c0.144-0.25,0.272-0.504,0.387-0.762l75.585-130.346
	c0.332-0.572,0.575-1.169,0.752-1.776L248,297.941v165.897c-22.424-0.845-44.332-5.231-65.231-13.094
	c-4.136-1.556-8.749,0.536-10.305,4.671s0.536,8.749,4.671,10.305c22.705,8.542,46.508,13.274,70.865,14.126v16.006
	c-37.854-1.247-73.516-11.298-105.001-28.173L154.567,447.73z M71.978,353.007C57.516,325.6,49.364,295.128,48.169,264h165.89
	l-16.839,16.838c-0.414,0.154-0.823,0.335-1.218,0.564L71.978,353.007z M16.148,264h15.999c1.21,33.937,10.103,67.175,25.955,97.019
	l-13.792,7.963C27.441,337.501,17.394,301.847,16.148,264z M44.31,143.019l13.735,7.931C42.252,180.618,33.354,213.634,32.156,248
	H16.148C17.394,210.154,27.441,174.499,44.31,143.019z M325.282,120H312c-4.418,0-8,3.582-8,8v24.002
	c0,1.215,0.285,2.397,0.802,3.471l-23.73,41.101c-0.155,0.269-0.289,0.544-0.41,0.822L264,214.059V48.164
	c23.81,0.895,46.998,5.773,69.034,14.565c4.103,1.636,8.757-0.363,10.395-4.466c1.637-4.104-0.363-8.758-4.466-10.395
	c-23.93-9.546-49.112-14.81-74.963-15.713V16.147c37.847,1.246,73.501,11.294,104.981,28.163L325.282,120z M248,32.156
	c-34.366,1.198-67.382,10.096-97.052,25.889l-7.93-13.734C174.499,27.441,210.153,17.394,248,16.147V32.156z M248,48.169v177.975
	L159.027,72.037C185.781,57.877,215.973,49.387,248,48.169z M234.144,234.145L80.058,145.183
	c16.589-26.244,38.88-48.536,65.125-65.125L234.144,234.145z M226.143,248H48.168c1.218-32.027,9.708-62.219,23.869-88.973
	L226.143,248z M142.627,335.431l5.657,5.657c1.5,1.5,3.535,2.343,5.657,2.343s4.157-0.843,5.657-2.343l183.431-183.431
	c2.288-2.288,2.973-5.729,1.734-8.718c-1.239-2.99-4.156-4.938-7.392-4.938L320,144.002V136h56v56h-8v-17.372
	c0-3.236-1.949-6.152-4.938-7.391c-2.99-1.239-6.431-0.553-8.718,1.734L170.912,352.402c-3.125,3.124-3.125,8.189,0,11.313
	l5.657,5.657l-11.314,11.314l-33.941-33.941L142.627,335.431z M384,208c4.418,0,8-3.582,8-8v-13.281l48.015-27.722
	c14.448,27.371,22.615,57.911,23.813,89.003H297.941l16.509-16.509l42.077-24.293c1.052,0.509,2.227,0.802,3.473,0.802H384z
	 M187.882,358.059l0.447-0.447l-0.328,0.565L187.882,358.059z M264,479.844c34.366-1.198,67.383-10.096,97.052-25.889l7.93,13.734
	c-31.48,16.869-67.135,26.917-104.982,28.163V479.844z M264,463.831V285.856l88.974,154.106
	C326.219,454.123,296.027,462.614,264,463.831z M277.856,277.856l154.086,88.961c-16.589,26.244-38.88,48.536-65.125,65.124
	L277.856,277.856z M285.856,264h177.975c-1.218,32.027-9.708,62.219-23.869,88.973L285.856,264z M479.844,248
	c-1.214-33.894-10.128-67.204-25.965-97.008l13.811-7.974c16.87,31.48,26.917,67.135,28.163,104.981L479.844,248L479.844,248z
	 M459.663,129.178L392,168.243V128c0-4.418-3.582-8-8-8h-40.243l23.103-40.016c20.751,13.091,38.883,29.579,53.921,49.069
	c1.576,2.042,3.945,3.113,6.34,3.113c1.706,0,3.426-0.544,4.881-1.667c3.498-2.699,4.146-7.723,1.447-11.221
	c-16.317-21.147-36.021-39.011-58.585-53.158l7.958-13.784C413.904,71.762,440.238,98.096,459.663,129.178z M129.177,52.337
	l7.93,13.734c-14.145,8.892-27.395,19.433-39.499,31.538c-12.104,12.104-22.645,25.354-31.537,39.499l-13.734-7.929
	C71.762,98.096,98.096,71.762,129.177,52.337z M52.337,382.822l20.561-11.87c0.005-0.003,0.011-0.006,0.017-0.009
	c0.007-0.004,0.014-0.009,0.021-0.013l39.215-22.641c0.295,1.507,1.025,2.945,2.193,4.113l45.255,45.254
	c1.197,1.197,2.68,1.931,4.228,2.211l-18.654,32.168c-19.265-12.143-36.313-27.259-50.747-45.038
	c-2.785-3.431-7.824-3.955-11.253-1.169c-3.43,2.785-3.954,7.823-1.169,11.253c15.663,19.294,34.19,35.675,55.138,48.802
	l-7.983,13.767C98.085,440.228,71.758,413.898,52.337,382.822z M382.823,459.663l-7.929-13.734
	c14.144-8.892,27.394-19.433,39.499-31.537s22.646-25.354,31.537-39.499l13.734,7.929
	C440.238,413.904,413.904,440.238,382.823,459.663z"/>
</svg>